<svg id="Capa_1" data-name="Capa 1" xmlns="http://www.w3.org/2000/svg" viewBox="0 0 106.86 94.22"><path d="M22.42,82.27a1.93,1.93,0,0,0,1.24.16c27.08-5.22,53.82-11.52,80.7-17.59a2,2,0,0,0,1.54-2.32c-3.72-15.91-7.54-31.77-12-47.5a2,2,0,0,0-2.32-1.54c-26.29,3.73-51.75,10.22-77.37,17a2,2,0,0,0-1.54,2.32C16,48.73,18.54,64.86,21.34,80.88A1.74,1.74,0,0,0,22.42,82.27Zm68.1-64.66c4.09,14.51,7.63,29.14,11.08,43.82C76,67.2,50.6,73.16,24.87,78.17c-2.57-14.78-4.95-29.64-8-44.32C41.27,27.4,65.53,21.29,90.52,17.61Z" transform="translate(-5.91 -5.1)"/><path d="M8.16,28.93A755.08,755.08,0,0,1,96,9c2.5-.41,1.72-4.28-.78-3.86A754.91,754.91,0,0,0,7.39,25.07C5,25.77,5.73,29.64,8.16,28.93Z" transform="translate(-5.91 -5.1)"/><path d="M110.46,67.72c-15.53,2.46-30.69,6.69-46,10.07-15,3.31-30.09,6.62-45.35,8.77-2.51.35-1.73,4.21.78,3.86,13.31-1.87,26.45-4.63,39.58-7.5q-2,6.9-3.89,13.8c-.69,2.44,3,3.73,3.73,1.28q2.25-8,4.52-16l1.4-.31c1.38-.3,2.75-.61,4.13-.93l8.21,13.57c1.3,2.16,4.84.41,3.52-1.77l-7.7-12.73c12.57-3,25.1-6.18,37.86-8.2C113.74,71.19,113,67.33,110.46,67.72Z" transform="translate(-5.91 -5.1)"/><path d="M39.7,64.26q6.22-8.12,11.83-16.66l7.95,9a2,2,0,0,0,3.11-.22Q70,47.92,76.85,39c0,.08,0,.16.05.24.4,1.69.81,3.38,1.21,5.07.58,2.47,4.45,1.7,3.86-.77-.47-2-.93-3.95-1.4-5.92a22.64,22.64,0,0,0-1.34-5.05A2,2,0,0,0,77.6,31.5c-1.75,0-3.19,1-4.76,1.71A44.56,44.56,0,0,1,67,35.06c-2.43.65-1.68,4.52.78,3.86,1.69-.45,3.38-.91,5-1.49l.45-.17q-6,7.68-12.29,15.07l-8.16-9.28a2,2,0,0,0-3.11.22q-6.26,9.67-13.25,18.81C34.88,64.1,38.17,66.27,39.7,64.26Z" transform="translate(-5.91 -5.1)"/></svg>